<svg width="91" height="33" viewBox="0 0 91 33" fill="none" xmlns="http://www.w3.org/2000/svg">
<path d="M24.7 16.9769L34 9.11026L7.39167 31.5L16.0458 24.2385M24.7 16.9769L13.85 13.0436M24.7 16.9769L16.0458 24.2385M11.7833 2L3 9.11026L13.85 13.0436M13.85 13.0436L20.05 7.74872M16.0458 24.2385L28.3167 29.0795" stroke="#212121" stroke-width="3"/>
<path d="M42.9531 23.1953C41.8542 23.1953 40.901 22.9609 40.0938 22.4922C39.2917 22.0234 38.6719 21.3542 38.2344 20.4844C37.8021 19.6094 37.5859 18.5677 37.5859 17.3594V17.3516C37.5859 16.138 37.8047 15.099 38.2422 14.2344C38.6797 13.3646 39.2995 12.6979 40.1016 12.2344C40.9036 11.7656 41.8542 11.5312 42.9531 11.5312C43.8646 11.5312 44.6771 11.7083 45.3906 12.0625C46.1042 12.4167 46.6771 12.9036 47.1094 13.5234C47.5417 14.1432 47.7943 14.8516 47.8672 15.6484L47.875 15.7188H45.5781L45.5469 15.5859C45.4115 14.9661 45.1198 14.4688 44.6719 14.0938C44.2292 13.7188 43.6562 13.5312 42.9531 13.5312C42.0469 13.5312 41.3255 13.8724 40.7891 14.5547C40.2578 15.237 39.9922 16.1667 39.9922 17.3438V17.3516C39.9922 18.5391 40.2604 19.4766 40.7969 20.1641C41.3333 20.8516 42.0521 21.1953 42.9531 21.1953C43.6354 21.1953 44.2031 21.0104 44.6562 20.6406C45.1146 20.2708 45.4193 19.75 45.5703 19.0781L45.5859 19H47.8828L47.875 19.0859C47.8021 19.8828 47.5469 20.5911 47.1094 21.2109C46.6771 21.8307 46.1016 22.3177 45.3828 22.6719C44.6693 23.0208 43.8594 23.1953 42.9531 23.1953ZM50.5859 25.7578C50.362 25.7578 50.1458 25.7474 49.9375 25.7266C49.7292 25.7057 49.5573 25.6823 49.4219 25.6562V23.9609C49.5 23.9766 49.6042 23.9922 49.7344 24.0078C49.8646 24.0286 50.0156 24.0391 50.1875 24.0391C50.526 24.0391 50.7943 23.9818 50.9922 23.8672C51.1953 23.7578 51.3464 23.5599 51.4453 23.2734L51.5469 23L48.5859 14.625H51.0938L52.8594 21.1719H52.9219L54.6953 14.625H57.1016L54.2266 23.1484C53.8984 24.138 53.4401 24.8203 52.8516 25.1953C52.2682 25.5703 51.513 25.7578 50.5859 25.7578ZM57.8984 25.7344V14.625H60.1797V16.0859H60.2344C60.4583 15.5807 60.7917 15.1823 61.2344 14.8906C61.6771 14.599 62.1953 14.4531 62.7891 14.4531C63.8516 14.4531 64.6875 14.8385 65.2969 15.6094C65.9062 16.3802 66.2109 17.4453 66.2109 18.8047V18.8125C66.2109 20.1719 65.9062 21.2396 65.2969 22.0156C64.6927 22.7865 63.8672 23.1719 62.8203 23.1719C62.2214 23.1719 61.6953 23.0312 61.2422 22.75C60.7943 22.4635 60.4557 22.0703 60.2266 21.5703H60.1797V25.7344H57.8984ZM62.0391 21.2812C62.6068 21.2812 63.0573 21.0599 63.3906 20.6172C63.724 20.1745 63.8906 19.5729 63.8906 18.8125V18.8047C63.8906 18.0391 63.7214 17.4375 63.3828 17C63.0495 16.5625 62.6016 16.3438 62.0391 16.3438C61.4818 16.3438 61.0312 16.5651 60.6875 17.0078C60.3438 17.4505 60.1719 18.0521 60.1719 18.8125V18.8203C60.1719 19.5755 60.3438 20.1745 60.6875 20.6172C61.0312 21.0599 61.4818 21.2812 62.0391 21.2812ZM67.4531 23V11.7266H69.7344V16.0703H69.7812C69.9948 15.5547 70.3177 15.1562 70.75 14.875C71.1875 14.5938 71.7214 14.4531 72.3516 14.4531C73.2578 14.4531 73.974 14.75 74.5 15.3438C75.026 15.9323 75.2891 16.7318 75.2891 17.7422V23H73.0078V18.2109C73.0078 17.6276 72.8672 17.1719 72.5859 16.8438C72.3047 16.5104 71.9062 16.3438 71.3906 16.3438C70.8854 16.3438 70.4818 16.5182 70.1797 16.8672C69.8828 17.2109 69.7344 17.6562 69.7344 18.2031V23H67.4531ZM80.5703 23.1719C79.2891 23.1719 78.2812 22.7839 77.5469 22.0078C76.8177 21.2266 76.4531 20.1667 76.4531 18.8281V18.8203C76.4531 17.9349 76.6172 17.1667 76.9453 16.5156C77.2734 15.8594 77.7396 15.3516 78.3438 14.9922C78.9479 14.6328 79.6589 14.4531 80.4766 14.4531C81.2943 14.4531 82 14.6276 82.5938 14.9766C83.1927 15.3255 83.6536 15.8151 83.9766 16.4453C84.3047 17.0703 84.4688 17.8047 84.4688 18.6484V19.3516H78.7031C78.7135 20.0182 78.888 20.5391 79.2266 20.9141C79.5703 21.2839 80.0339 21.4688 80.6172 21.4688C81.0859 21.4688 81.4609 21.3646 81.7422 21.1562C82.0234 20.9427 82.2057 20.7188 82.2891 20.4844L82.3047 20.4375H84.3984L84.375 20.5234C84.2865 20.9401 84.0938 21.3516 83.7969 21.7578C83.5052 22.1641 83.0938 22.5026 82.5625 22.7734C82.0312 23.0391 81.3672 23.1719 80.5703 23.1719ZM80.5156 16.1562C80.0469 16.1562 79.6484 16.3073 79.3203 16.6094C78.9974 16.9115 78.7995 17.3464 78.7266 17.9141H82.2812C82.2083 17.3359 82.013 16.8984 81.6953 16.6016C81.3828 16.3047 80.9896 16.1562 80.5156 16.1562ZM85.6484 23V14.625H87.9297V16.0859H87.9766C88.1016 15.5703 88.3281 15.1693 88.6562 14.8828C88.9844 14.5964 89.3932 14.4531 89.8828 14.4531C90.0078 14.4531 90.125 14.4635 90.2344 14.4844C90.349 14.5 90.4505 14.5182 90.5391 14.5391V16.5469C90.3307 16.4635 90.0547 16.4219 89.7109 16.4219C89.1484 16.4219 88.7109 16.5859 88.3984 16.9141C88.0859 17.237 87.9297 17.7031 87.9297 18.3125V23H85.6484Z" fill="#212121"/>
</svg>
